<svg width="648" height="569" viewBox="0 0 648 569" fill="none" xmlns="http://www.w3.org/2000/svg">
<path opacity="0.0991676" d="M151.755 572.353L-297.256 306.729C-311.551 298.683 -323.804 285.501 -309.875 276.852L140.733 16.8897C147.487 12.6963 157.751 9.94443 164.636 13.9543L635.901 287.781C650.197 296.089 652.762 319.231 638.52 327.618L210.925 571.933C192.663 582.537 170.165 582.697 151.755 572.353Z" fill="#6862E6"/>
<path d="M405.018 355.203L185.313 225.211C178.318 221.273 172.323 214.822 179.138 210.589L399.625 83.3669C402.93 81.3148 407.952 79.968 411.321 81.9304L641.916 215.937C648.91 220.003 650.166 231.329 643.197 235.433L433.971 354.998C425.035 360.187 414.026 360.265 405.018 355.203Z" fill="#5B36A0"/>
<path d="M405.018 349.203L185.313 219.211C178.318 215.273 172.323 208.822 179.138 204.589L399.625 77.3669C402.93 75.3148 407.952 73.968 411.321 75.9304L641.916 209.937C648.91 214.003 650.166 225.329 643.197 229.433L433.971 348.998C425.035 354.187 414.026 354.265 405.018 349.203Z" fill="#6862E6"/>
<g style="mix-blend-mode:multiply" opacity="0.25">
<path d="M423.133 177.693L379.781 202.46C379.781 202.46 446.564 243.26 460.22 249.006L485.188 213.093" fill="url(#paint0_linear_130_3)"/>
</g>
<g style="mix-blend-mode:multiply" opacity="0.25">
<path d="M408.157 296.513L364.792 271.798L321.428 296.565C321.428 296.565 344.013 310.366 365.599 323.038C379.307 313.328 393.027 303.517 408.157 296.513Z" fill="url(#paint1_linear_130_3)"/>
</g>
<g style="mix-blend-mode:multiply" opacity="0.46">
<path d="M314.728 143.883L287.223 159.595C287.223 159.595 289.554 173.999 303.211 179.745L339.222 156.658" fill="url(#paint2_linear_130_3)"/>
</g>
<ellipse cx="328.192" cy="147.898" rx="16.59" ry="11.6974" fill="#68E1FD"/>
<ellipse cx="328.179" cy="140.997" rx="12.4265" ry="5.09196" fill="#974C26"/>
<path fill-rule="evenodd" clip-rule="evenodd" d="M327.474 125.619C327.654 127.915 327.73 130.21 327.73 132.506C327.718 135.379 327.577 138.252 327.269 141.113C326.283 139.74 325.309 138.304 324.284 136.688C322.965 134.623 321.735 132.506 320.608 130.339C319.56 128.411 318.664 126.404 317.93 124.336C317.114 122.09 316.459 119.788 315.97 117.448C315.842 116.884 315.727 116.217 315.624 115.602V115.383V114.845C315.522 113.639 315.419 112.357 315.419 111.074C315.362 106.712 316.204 102.385 317.892 98.3633C322.377 104.876 325.401 112.284 326.757 120.078C326.842 120.54 326.923 121.006 327 121.476C327 121.386 327.18 122.322 327.18 122.669L327.308 123.836C327.368 124.426 327.423 125.02 327.474 125.619ZM321.21 106.687C321.21 106.687 321.21 106.687 321.21 106.687H321.197C321.201 106.687 321.206 106.687 321.21 106.687ZM321.21 106.687C321.525 106.669 321.841 106.704 322.145 106.79C321.838 106.448 321.526 106.115 321.21 105.79C321.275 106.085 321.276 106.391 321.21 106.687Z" fill="#999A1C"/>
<path fill-rule="evenodd" clip-rule="evenodd" d="M335.494 128.338C334.405 130.428 333.278 132.34 331.996 134.276C330.446 136.7 328.73 139.035 327.026 141.305C326.911 139.625 326.911 137.88 326.911 135.969C326.911 133.52 327.013 131.083 327.244 128.646C327.402 126.456 327.732 124.281 328.23 122.143C328.753 119.809 329.443 117.516 330.293 115.281C330.523 114.691 330.767 114.114 331.01 113.537L331.01 113.537L331.074 113.331L331.33 112.857C331.907 111.741 332.522 110.638 333.188 109.573C335.502 105.868 338.554 102.68 342.155 100.21C342.416 108.124 340.96 116 337.889 123.297C337.71 123.716 337.526 124.144 337.339 124.58L336.839 125.683L336.314 126.747C336.049 127.278 335.776 127.808 335.494 128.338ZM340.887 108.239C340.801 108.529 340.652 108.796 340.452 109.022C340.702 109.154 340.93 109.322 341.131 109.522C341.062 109.112 340.981 108.684 340.887 108.239Z" fill="#999A1C"/>
<path fill-rule="evenodd" clip-rule="evenodd" d="M335.75 137.919C334.478 138.663 333.196 139.355 331.907 139.997C330.293 140.805 328.64 141.523 326.987 142.216C327.474 141.279 328.025 140.317 328.64 139.291C329.447 138.009 330.293 136.726 331.202 135.443C331.993 134.312 332.871 133.244 333.828 132.25C334.865 131.158 335.978 130.142 337.159 129.21L338.107 128.505L338.21 128.415L338.504 128.235C339.183 127.825 339.862 127.427 340.567 127.068C343.004 125.814 345.673 125.076 348.407 124.9C345.997 129.25 342.676 133.026 338.671 135.969L337.954 136.495L337.339 136.931L336.711 137.329L335.75 137.919ZM345.102 128.812C344.963 128.941 344.796 129.038 344.615 129.095V129.107C344.701 129.268 344.761 129.441 344.794 129.62C344.906 129.355 345.008 129.086 345.102 128.812Z" fill="#999A1C"/>
<path fill-rule="evenodd" clip-rule="evenodd" d="M327.474 125.619C327.654 127.915 327.73 130.21 327.73 132.506C327.718 135.379 327.577 138.252 327.269 141.113C326.283 139.74 325.309 138.304 324.284 136.688C322.965 134.623 321.735 132.506 320.608 130.339C319.56 128.411 318.664 126.404 317.93 124.336C317.114 122.09 316.459 119.788 315.97 117.448C315.842 116.884 315.727 116.217 315.624 115.602V115.383V114.845C315.522 113.639 315.419 112.357 315.419 111.074C315.362 106.712 316.204 102.385 317.892 98.3633C322.377 104.876 325.401 112.284 326.757 120.078C326.842 120.54 326.923 121.006 327 121.476C327 121.386 327.18 122.322 327.18 122.669L327.308 123.836C327.368 124.426 327.423 125.02 327.474 125.619ZM321.21 106.687C321.21 106.687 321.21 106.687 321.21 106.687H321.197C321.201 106.687 321.206 106.687 321.21 106.687ZM321.21 106.687C321.525 106.669 321.841 106.704 322.145 106.79C321.838 106.448 321.526 106.115 321.21 105.79C321.275 106.085 321.276 106.391 321.21 106.687Z" fill="#999A1C"/>
<path fill-rule="evenodd" clip-rule="evenodd" d="M335.494 128.338C334.405 130.428 333.278 132.34 331.996 134.276C330.446 136.7 328.73 139.035 327.026 141.305C326.911 139.625 326.911 137.88 326.911 135.969C326.911 133.52 327.013 131.083 327.244 128.646C327.402 126.456 327.732 124.281 328.23 122.143C328.753 119.809 329.443 117.516 330.293 115.281C330.523 114.691 330.767 114.114 331.01 113.537L331.01 113.537L331.074 113.331L331.33 112.857C331.907 111.741 332.522 110.638 333.188 109.573C335.502 105.868 338.554 102.68 342.155 100.21C342.416 108.124 340.96 116 337.889 123.297C337.71 123.716 337.526 124.144 337.339 124.58L336.839 125.683L336.314 126.747C336.049 127.278 335.776 127.808 335.494 128.338ZM340.887 108.239C340.801 108.529 340.652 108.796 340.452 109.022C340.702 109.154 340.93 109.322 341.131 109.522C341.062 109.112 340.981 108.684 340.887 108.239Z" fill="#999A1C"/>
<path fill-rule="evenodd" clip-rule="evenodd" d="M335.75 137.919C334.478 138.663 333.196 139.355 331.907 139.997C330.293 140.805 328.64 141.523 326.987 142.216C327.474 141.279 328.025 140.317 328.64 139.291C329.447 138.009 330.293 136.726 331.202 135.443C331.993 134.312 332.871 133.244 333.828 132.25C334.865 131.158 335.978 130.142 337.159 129.21L338.107 128.505L338.21 128.415L338.504 128.235C339.183 127.825 339.862 127.427 340.567 127.068C343.004 125.814 345.673 125.076 348.407 124.9C345.997 129.25 342.676 133.026 338.671 135.969L337.954 136.495L337.339 136.931L336.711 137.329L335.75 137.919ZM345.102 128.812C344.963 128.941 344.796 129.038 344.615 129.095V129.107C344.701 129.268 344.761 129.441 344.794 129.62C344.906 129.355 345.008 129.086 345.102 128.812Z" fill="#999A1C"/>
<path d="M440.35 168.022L416.356 179.565C414.513 180.452 413.311 182.285 413.231 184.33C413.15 186.375 414.205 188.297 415.971 189.326L472.839 222.545C475.392 224.04 478.669 223.254 480.269 220.763L494.092 199.24" fill="#A1482D"/>
<path d="M570.854 112.344L379.525 1.96244C376.853 0.424412 373.566 0.4283 370.898 1.97264C368.23 3.51698 366.587 6.36767 366.586 9.45287V124.285C366.586 126.851 367.953 129.222 370.173 130.505L574.146 248.39C575.578 249.221 577.345 249.222 578.778 248.394C580.211 247.565 581.093 246.033 581.09 244.375V130.018C581.084 122.717 577.18 115.976 570.854 112.344Z" fill="#F47B56"/>
<path d="M379.537 10.6456L565.089 117.525C569.122 119.85 571.608 124.154 571.61 128.812V214.888C571.607 216.564 570.714 218.112 569.265 218.953C567.816 219.793 566.031 219.798 564.577 218.967L375.348 110.304C373.907 109.477 373.017 107.941 373.017 106.277V14.4293C373.017 12.874 373.844 11.4365 375.188 10.6566C376.532 9.87672 378.189 9.87252 379.537 10.6456Z" fill="white"/>
<ellipse cx="456.738" cy="168.465" rx="4.03558" ry="4.61719" transform="rotate(-10.9 456.738 168.465)" fill="#AB643C"/>
<path opacity="0.32" d="M429.41 127.427L515.639 179.296L558.235 154.503L482.126 110.15" fill="url(#paint3_linear_130_3)"/>
<path d="M535.97 117.102L442.746 60.1928C441.73 59.6044 440.474 59.6148 439.468 60.2199C438.461 60.8251 437.862 61.9296 437.903 63.1044V95.5287C437.896 96.7218 438.513 97.8318 439.53 98.4531L532.742 154.157C533.739 154.724 534.962 154.717 535.952 154.138C536.942 153.559 537.549 152.496 537.546 151.348L538.033 121.117C538.106 119.507 537.321 117.979 535.97 117.102Z" fill="#E2AC00"/>
<path d="M513.667 133.789C517.01 138.47 522.89 139.779 526.785 136.726C530.679 133.674 531.128 127.402 527.784 122.733C524.44 118.064 518.56 116.743 514.666 119.796C510.771 122.848 510.323 129.107 513.667 133.789Z" fill="white"/>
<path d="M504.52 111.318L466.497 88.3973C465.82 88.0801 465.014 88.3307 464.635 88.9757C464.257 89.6206 464.431 90.4481 465.037 90.8856L503.059 113.806C503.736 114.123 504.543 113.873 504.921 113.228C505.3 112.583 505.126 111.755 504.52 111.318Z" fill="#F2F2F2"/>
<path d="M502.957 120.629L450.548 89.0386C449.885 88.8067 449.152 89.0842 448.808 89.6969C448.464 90.3096 448.609 91.0809 449.151 91.5269L501.496 123.13C502.173 123.448 502.98 123.197 503.358 122.552C503.737 121.907 503.563 121.08 502.957 120.642V120.629Z" fill="#F2F2F2"/>
<path d="M517.369 123.387L424.196 66.4905C423.18 65.902 421.924 65.9124 420.918 66.5175C419.911 67.1227 419.312 68.2272 419.353 69.402V101.813C419.338 103.009 419.951 104.124 420.968 104.751L514.179 160.454C515.187 161.034 516.429 161.025 517.427 160.429C518.426 159.833 519.025 158.745 518.996 157.581L519.483 127.35C519.526 125.748 518.723 124.242 517.369 123.387Z" fill="#F47B56"/>
<path d="M495.065 140.074C498.409 144.755 504.289 146.064 508.184 143.011C512.078 139.958 512.526 133.686 509.183 129.018C505.839 124.349 499.959 123.028 496.065 126.08C492.17 129.133 491.722 135.392 495.065 140.074Z" fill="white"/>
<path d="M485.918 117.602L447.87 94.6821C447.194 94.3649 446.387 94.6155 446.008 95.2604C445.63 95.9054 445.804 96.7329 446.41 97.1704L484.432 120.091C485.109 120.408 485.916 120.157 486.294 119.512C486.673 118.867 486.499 118.04 485.893 117.602H485.918Z" fill="#F2F2F2"/>
<path d="M484.343 126.978L431.946 95.3363C431.27 95.0191 430.463 95.2696 430.084 95.9146C429.706 96.5596 429.88 97.3871 430.486 97.8246L482.895 129.415C483.572 129.732 484.378 129.482 484.757 128.837C485.136 128.192 484.962 127.364 484.355 126.927L484.343 126.978Z" fill="#F2F2F2"/>
<path d="M493.989 127.209L400.791 70.3126C399.774 69.7241 398.519 69.7345 397.512 70.3397C396.506 70.9448 395.907 72.0494 395.948 73.2241V105.636C395.94 106.829 396.558 107.939 397.575 108.56L490.786 164.264C491.794 164.844 493.036 164.834 494.035 164.238C495.033 163.643 495.633 162.554 495.603 161.391L496.09 131.16C496.132 129.565 495.334 128.065 493.989 127.209Z" fill="#68E1FD"/>
<path d="M493.989 127.209L400.791 70.3126C399.774 69.7241 398.519 69.7345 397.512 70.3397C396.506 70.9448 395.907 72.0494 395.948 73.2241V105.636C395.94 106.829 396.558 107.939 397.575 108.56L490.786 164.264C491.794 164.844 493.036 164.834 494.035 164.238C495.033 163.643 495.633 162.554 495.603 161.391L496.09 131.16C496.132 129.565 495.334 128.065 493.989 127.209Z" fill="#68E1FD"/>
<path d="M471.673 143.896C475.016 148.577 480.897 149.886 484.791 146.833C488.686 143.78 489.134 137.508 485.79 132.84C482.447 128.171 476.566 126.85 472.672 129.903C468.777 132.955 468.368 139.214 471.673 143.896Z" fill="white"/>
<path d="M462.526 121.425L424.491 98.5044C423.814 98.1872 423.007 98.4377 422.629 99.0827C422.25 99.7277 422.424 100.555 423.03 100.993L461.053 123.913C461.729 124.23 462.536 123.98 462.915 123.335C463.293 122.69 463.119 121.862 462.513 121.425H462.526Z" fill="#F2F2F2"/>
<path d="M460.95 130.749L408.541 99.1585C407.864 98.8412 407.058 99.0918 406.679 99.7368C406.301 100.382 406.475 101.209 407.081 101.647L459.49 133.237C460.166 133.555 460.973 133.304 461.352 132.659C461.73 132.014 461.556 131.187 460.95 130.749Z" fill="#F2F2F2"/>
<path d="M371.672 124.028C365.649 129.218 361.094 135.902 358.464 143.409C353.826 156.235 365.42 177.192 365.42 177.192L383.458 162.891" fill="#FF8F6F"/>
<path d="M369.724 293.602L364.831 290.896L366.112 283.893C366.112 283.893 373.401 284.585 374.042 287.176" fill="#003B94"/>
<path d="M371.518 293.499C372.62 292.82 373.773 292.217 374.913 291.614C377.744 290.062 381.831 288.459 383.573 285.547C384.304 284.342 384.212 282.809 383.342 281.699C380.78 278.595 375.169 283.7 372.299 280.263C371.736 279.583 371.467 268.796 371.467 268.796L360.552 271.746C360.552 271.746 358.707 293.422 358.912 294.756C359.117 296.09 362.871 297.321 362.871 297.321C363.988 297.084 365.055 296.649 366.022 296.039C367.162 295.205 366.124 285.034 367.585 286.458C369.045 287.881 369.686 293.448 369.686 293.448C370.292 293.54 370.907 293.557 371.518 293.499Z" fill="#F47B56"/>
<path d="M390.568 304.081L385.674 301.413L386.955 294.41C386.955 294.41 394.244 295.103 394.885 297.694" fill="#003B94"/>
<path d="M392.412 303.978C393.514 303.298 394.667 302.696 395.807 302.093C398.638 300.541 402.725 298.938 404.467 296.026C405.198 294.82 405.106 293.288 404.237 292.178C401.674 289.074 396.063 294.179 393.194 290.742C392.63 290.062 392.361 279.275 392.361 279.275L381.446 282.225C381.446 282.225 379.589 303.978 379.794 305.261C379.999 306.543 383.752 307.826 383.752 307.826C384.87 307.588 385.937 307.154 386.904 306.543C388.044 305.71 387.006 295.539 388.467 296.962C389.927 298.386 390.568 303.953 390.568 303.953C391.179 304.037 391.799 304.046 392.412 303.978Z" fill="#F47B56"/>
<path d="M355.005 233.614L351.789 276.672C351.789 276.672 356.914 283.752 374.093 279.814L374.259 250.789" fill="#3E2928"/>
<path d="M374.849 242.144C374.477 245.85 374.849 286.74 374.849 286.74C374.849 286.74 379.601 295.641 400.291 286.74L399.996 251.994" fill="#3E2928"/>
<path d="M353.403 247.838C354.813 248.813 355.299 243.798 356.773 244.658C362.132 247.775 367.821 250.287 373.734 252.148H373.862C374.147 252.01 374.475 251.993 374.773 252.102C375.07 252.21 375.31 252.436 375.438 252.725C379.091 253.816 382.809 254.673 386.571 255.29C391.4 256.06 395.397 252.482 400.355 252.238C400.355 233.23 400.445 179.129 392.361 167.586L368.443 159.531C368.328 161.506 356.837 174.845 357.118 191.109C357.439 209.437 355.056 226.727 354.646 232.46C354.582 233.435 353.455 246.8 353.403 247.838Z" fill="#3E2928"/>
<path d="M394.564 145.73L392.361 167.534C392.361 167.534 374.516 168.253 366.829 162.943V144.447" fill="#FF8F6F"/>
<path d="M417.252 131.378L415.433 133.866C416.403 131.842 417.259 129.765 417.995 127.645C418.508 126.196 416.189 125.619 415.677 127.068L415.408 127.812C415.63 127.042 415.839 126.269 416.035 125.49C416.195 124.849 415.805 124.2 415.164 124.041C414.524 123.882 413.876 124.272 413.717 124.913C413.214 126.926 412.611 128.912 411.91 130.865C412.302 129.131 412.584 127.375 412.756 125.606C412.91 124.08 410.514 124.144 410.373 125.606C410.174 127.62 409.814 129.614 409.297 131.57C409.297 130.886 409.233 130.202 409.105 129.518C409.069 129.173 408.887 128.86 408.605 128.659C408.541 128.389 408.464 128.133 408.375 127.863C408.187 127.309 407.629 126.97 407.052 127.059C406.474 127.147 406.044 127.638 406.03 128.222L405.876 137.201C405.443 138.132 404.877 138.996 404.198 139.766C405.351 140.564 406.463 141.42 407.529 142.331C408.48 143.136 409.387 143.993 410.245 144.896C411.014 143.939 411.752 142.964 412.461 141.972C412.549 141.897 412.627 141.811 412.692 141.715C414.827 138.552 417.03 135.439 419.302 132.378C420.25 131.326 418.162 130.159 417.252 131.378Z" fill="#FFB5A9"/>
<path d="M383.24 125.85C383.24 125.85 391.669 128.12 395.09 133.545C397.232 137.3 399.119 141.196 400.739 145.204L406.965 135.52C406.965 135.52 414.524 137.842 417.521 141.562C417.521 141.562 408.554 161.185 400.739 162.866C392.925 164.546 384.623 151.348 384.623 151.348C384.623 151.348 382.907 156.863 383.24 150.976" fill="#FF8F6F"/>
<path d="M388.595 146.82C386.144 144.824 384.295 142.187 383.253 139.201C382.24 135.751 383.509 132.724 384.687 129.518C385.963 126.339 386.708 122.972 386.891 119.552C386.993 116.191 386.609 112.831 386.378 109.483C386.345 109.34 386.345 109.191 386.378 109.047C385.251 105.264 382.945 102.057 378.397 101.672C366.624 100.672 365.958 113.729 366.048 119.039C366.137 124.349 366.701 127.94 362.794 130.159C358.886 132.378 356.068 138.201 359.796 142.908C363.524 147.615 360.18 145.897 357.695 150.078C355.21 154.259 355.85 159.48 360.949 161.365C366.048 163.25 389.748 159.71 391.925 157.517C392.698 156.633 393.098 155.484 393.04 154.311C392.508 151.359 390.93 148.699 388.595 146.82Z" fill="#007F68"/>
<path fill-rule="evenodd" clip-rule="evenodd" d="M403.506 48.8802C403.325 45.3837 402.171 42.0075 400.176 39.1324C398.4 36.2591 395.777 34.0092 392.668 32.6937C391.076 31.9826 389.277 31.8911 387.621 32.4372C386.041 32.9971 384.738 34.1457 383.983 35.6437C383.073 37.4293 382.666 39.4288 382.804 41.4283C382.915 43.8067 383.471 46.1431 384.444 48.3159C385.415 50.5909 386.758 52.6887 388.415 54.5237C389.814 56.1552 391.567 57.445 393.54 58.2946C394.234 58.572 394.962 58.7575 395.705 58.8461C396.27 58.922 396.843 58.922 397.408 58.8461C397.85 58.7848 398.281 58.664 398.69 58.4869C398.949 58.3846 399.202 58.2646 399.445 58.1278L399.702 57.9483L398.152 55.0624L397.639 55.3446C397.118 55.5853 396.546 55.6912 395.974 55.6524C395.095 55.6617 394.223 55.4915 393.412 55.1522C391.08 54.082 389.16 52.2811 387.941 50.0217C386.411 47.7343 385.525 45.0755 385.379 42.3261C385.133 40.1398 385.891 37.9598 387.442 36.4004C388.911 35.1008 391.023 34.8313 392.771 35.7206C395.124 36.6998 397.11 38.3961 398.446 40.5689C399.933 42.7045 400.79 45.2157 400.919 47.8156C401.013 50.4407 400.44 51.5096 399.202 51.0222C398.761 50.831 398.392 50.5027 398.152 50.0859C397.868 49.6544 397.708 49.1529 397.69 48.6365L397.434 41.4283L394.872 40.4278V41.5693L394.641 41.1589C394.378 40.7834 394.068 40.4429 393.719 40.1456C393.309 39.7737 392.836 39.4783 392.323 39.2735C391.286 38.7631 390.041 38.958 389.21 39.7609C388.265 40.8045 387.828 42.2129 388.018 43.6087C388.072 45.3326 388.585 47.0108 389.504 48.4698C390.267 49.8125 391.445 50.8704 392.861 51.4839C393.454 51.7529 394.116 51.8335 394.757 51.7148C395.14 51.6585 395.502 51.5038 395.807 51.2659C395.927 51.134 396.031 50.9875 396.115 50.8298L396.422 51.4326C396.718 51.951 397.089 52.4222 397.524 52.8306C398.008 53.3332 398.593 53.7267 399.24 53.985C400.301 54.5503 401.609 54.3232 402.418 53.4335C403.341 52.1074 403.73 50.4811 403.506 48.8802ZM395.051 46.3535C395.136 47.031 394.946 47.7142 394.526 48.2517C394.133 48.6423 393.533 48.7355 393.04 48.4826C392.354 48.1849 391.782 47.6717 391.413 47.0204C390.964 46.3036 390.712 45.4806 390.683 44.6348C390.593 43.9624 390.799 43.2843 391.246 42.775C391.678 42.3849 392.306 42.3031 392.822 42.5698C393.48 42.8561 394.025 43.3521 394.372 43.9806C394.797 44.7006 395.031 45.5175 395.051 46.3535Z" fill="#F47B56"/>
<path fill-rule="evenodd" clip-rule="evenodd" d="M554.764 187.761C554.586 184.264 553.432 180.887 551.433 178.013C549.721 175.108 547.152 172.805 544.079 171.421C542.482 170.715 540.68 170.623 539.019 171.164C537.44 171.732 536.138 172.884 535.381 174.383C534.471 176.164 534.063 178.16 534.202 180.155C534.312 182.534 534.869 184.87 535.842 187.043C536.813 189.322 538.155 191.424 539.813 193.263C541.214 194.89 542.966 196.176 544.938 197.022C545.628 197.303 546.351 197.492 547.09 197.586C547.66 197.661 548.237 197.661 548.807 197.586C549.246 197.517 549.676 197.397 550.088 197.227C550.348 197.124 550.6 197.004 550.844 196.868L551.1 196.688L549.55 193.802L549.037 194.084C548.515 194.32 547.944 194.426 547.372 194.392C546.492 194.392 545.622 194.217 544.81 193.879C542.482 192.861 540.542 191.121 539.275 188.915C537.743 186.629 536.857 183.97 536.713 181.22C536.441 179.029 537.182 176.833 538.725 175.256C540.198 173.964 542.308 173.7 544.054 174.589C546.4 175.568 548.38 177.259 549.716 179.424C551.202 181.565 552.059 184.08 552.189 186.684C552.266 189.313 551.74 190.378 550.459 189.89C550.018 189.699 549.65 189.371 549.409 188.954C549.129 188.52 548.97 188.02 548.948 187.505L548.691 180.296L546.129 179.309V180.45L545.886 180.04C545.622 179.661 545.312 179.316 544.963 179.014C544.554 178.641 544.081 178.346 543.567 178.142C542.534 177.633 541.294 177.828 540.467 178.629C539.515 179.669 539.078 181.08 539.275 182.477C539.329 184.207 539.847 185.89 540.774 187.351C541.535 188.698 542.713 189.761 544.131 190.378C544.72 190.647 545.379 190.723 546.014 190.596C546.398 190.542 546.76 190.387 547.064 190.147C547.182 190.013 547.285 189.867 547.372 189.711L547.679 190.313C547.978 190.83 548.349 191.301 548.781 191.712C549.268 192.211 549.852 192.604 550.498 192.866C551.559 193.426 552.864 193.2 553.675 192.314C554.598 190.988 554.987 189.362 554.764 187.761ZM546.321 185.234C546.402 185.914 546.208 186.597 545.783 187.133C545.387 187.519 544.788 187.607 544.297 187.351C543.61 187.048 543.039 186.531 542.67 185.876C542.221 185.163 541.969 184.345 541.94 183.503C541.851 182.828 542.061 182.148 542.517 181.643C542.951 181.257 543.578 181.181 544.092 181.451C544.748 181.736 545.289 182.233 545.63 182.862C546.061 183.58 546.299 184.397 546.321 185.234Z" fill="#F47B56"/>
<g style="mix-blend-mode:multiply" opacity="0.25">
<path d="M296.139 232.704L252.774 208.001L209.423 232.755C209.423 232.755 233.545 247.838 255.132 260.511C268.839 250.814 281.022 239.72 296.139 232.704Z" fill="url(#paint4_linear_130_3)"/>
</g>
<g filter="url(#filter0_d_130_3)">
<path fill-rule="evenodd" clip-rule="evenodd" d="M214.93 163.886V217.755L256.899 241.791L304.286 213.766V159.897" fill="#FF9271"/>
</g>
<path d="M256.899 187.922V241.791L304.286 213.766V159.897L256.899 187.922Z" fill="#DF5C34"/>
<path d="M214.93 163.886L263.624 136.13L304.286 159.897L256.899 187.922L214.93 163.886Z" fill="#F47B56"/>
<path fill-rule="evenodd" clip-rule="evenodd" d="M272.22 151.624C267.879 149.247 262.95 148.161 258.013 148.494C252.833 148.586 247.773 150.065 243.358 152.778C241.042 154.097 239.2 156.112 238.092 158.537C237.169 160.637 237.169 163.029 238.092 165.13C239.21 167.512 241.072 169.466 243.396 170.696C246.276 172.324 249.451 173.362 252.735 173.749C256.349 174.249 260.018 174.184 263.612 173.557C266.909 173.055 270.077 171.913 272.938 170.196C273.931 169.589 274.854 168.875 275.692 168.067C276.328 167.464 276.895 166.793 277.383 166.066C277.721 165.527 277.997 164.95 278.203 164.347C278.346 163.972 278.462 163.586 278.549 163.193C278.557 163.048 278.557 162.902 278.549 162.757L273.796 162.488L273.617 163.296C273.359 164.11 272.921 164.855 272.336 165.476C271.461 166.492 270.427 167.358 269.274 168.041C265.942 170.017 262.128 171.029 258.257 170.966C254.368 171.13 250.509 170.211 247.111 168.311C243.998 166.477 242.397 164.193 242.397 161.628C242.371 159.012 243.87 156.759 246.893 154.869C250.216 152.843 254.021 151.749 257.911 151.701C261.581 151.459 265.244 152.274 268.467 154.048C271.499 155.844 272.131 157.293 270.363 158.396C269.067 159.094 267.508 159.094 266.212 158.396L257.872 153.484L254.272 155.728L255.554 156.498H254.849C254.159 156.536 253.476 156.652 252.812 156.844C251.98 157.06 251.185 157.402 250.455 157.857C248.904 158.594 247.909 160.153 247.893 161.872C247.97 163.462 248.994 164.848 250.993 166.028C253.106 167.242 255.513 167.85 257.949 167.785C260.304 167.831 262.624 167.218 264.649 166.015C265.518 165.522 266.243 164.81 266.75 163.95C267.055 163.487 267.232 162.951 267.263 162.398C267.234 162.164 267.174 161.935 267.083 161.718L268.057 161.795C268.949 161.821 269.84 161.731 270.709 161.526C271.766 161.312 272.776 160.913 273.694 160.346C275.628 159.178 276.448 157.793 276.256 156.203C276.064 154.612 274.706 153.086 272.22 151.624ZM261.075 159.756C261.906 160.117 262.506 160.866 262.676 161.757H262.728C262.741 162.576 262.268 163.326 261.523 163.668C260.539 164.249 259.412 164.543 258.269 164.514C257.081 164.542 255.907 164.245 254.875 163.655C254.054 163.295 253.48 162.531 253.363 161.641C253.382 160.787 253.877 160.015 254.644 159.64C255.579 159.08 256.656 158.804 257.744 158.845C258.916 158.847 260.065 159.161 261.075 159.756Z" fill="#3E2928"/>
<defs>
<filter id="filter0_d_130_3" x="164.93" y="134.897" width="189.355" height="181.895" filterUnits="userSpaceOnUse" color-interpolation-filters="sRGB">
<feFlood flood-opacity="0" result="BackgroundImageFix"/>
<feColorMatrix in="SourceAlpha" type="matrix" values="0 0 0 0 0 0 0 0 0 0 0 0 0 0 0 0 0 0 127 0" result="hardAlpha"/>
<feOffset dy="25"/>
<feGaussianBlur stdDeviation="25"/>
<feColorMatrix type="matrix" values="0 0 0 0 0.209139 0 0 0 0 0.0691446 0 0 0 0 0.478091 0 0 0 0.497159 0"/>
<feBlend mode="normal" in2="BackgroundImageFix" result="effect1_dropShadow_130_3"/>
<feBlend mode="normal" in="SourceGraphic" in2="effect1_dropShadow_130_3" result="shape"/>
</filter>
<linearGradient id="paint0_linear_130_3" x1="422.715" y1="185.543" x2="411.685" y2="218.24" gradientUnits="userSpaceOnUse">
<stop stop-color="#78B46A"/>
<stop offset="0.03" stop-color="#7F3500"/>
<stop offset="1" stop-color="white"/>
</linearGradient>
<linearGradient id="paint1_linear_130_3" x1="350.536" y1="252.477" x2="331.981" y2="310.838" gradientUnits="userSpaceOnUse">
<stop stop-color="#78B46A"/>
<stop offset="0.03" stop-color="#7F3500"/>
<stop offset="1" stop-color="white"/>
</linearGradient>
<linearGradient id="paint2_linear_130_3" x1="304.7" y1="130.002" x2="287.536" y2="169.625" gradientUnits="userSpaceOnUse">
<stop stop-color="#78B46A"/>
<stop offset="0.03" stop-color="#7F3500"/>
<stop offset="1" stop-color="white"/>
</linearGradient>
<linearGradient id="paint3_linear_130_3" x1="545.656" y1="165.452" x2="538.951" y2="148.459" gradientUnits="userSpaceOnUse">
<stop stop-color="white" stop-opacity="0.01"/>
<stop offset="0.99" stop-color="#DC841E"/>
</linearGradient>
<linearGradient id="paint4_linear_130_3" x1="239.555" y1="188.349" x2="220.033" y2="246.801" gradientUnits="userSpaceOnUse">
<stop stop-color="#78B46A"/>
<stop offset="0.03" stop-color="#7F3500"/>
<stop offset="1" stop-color="white"/>
</linearGradient>
</defs>
</svg>
